<?xml version="1.0" standalone="no"?>
<!DOCTYPE svg PUBLIC "-//W3C//DTD SVG 1.1//EN"
  "http://www.w3.org/Graphics/SVG/1.1/DTD/svg11.dtd">
<svg width="102mm" height="121mm" viewBox="-56 -65.5 102 121" xmlns="http://www.w3.org/2000/svg" version="1.1">
	<title>svgOutput</title>
	<desc>made with tinkercad</desc>
<path d="M 24.388999938964844 49.630001068115234 L 16.384000778198242 51.71022033691406 L 10.451000213623047 53.25199890136719 L 0 54.09614181518555 L -5 54.5 L -16.384000778198242 53.58049774169922 L -20.451000213623047 53.25199890136719 L -32.768001556396484 50.05124282836914 L -34.388999938964844 49.630001068115234 L -45.45100021362305 43.98899841308594 L -52.553001403808594 36.880001068115234 L -52.9806022644043 35.50299835205078 L -53.82991027832031 32.768001556396484 L -53.91375732421875 32.49800109863281 L -55 29 L -55 27.003000259399414 L -55 27.00200080871582 L -55 23.99799919128418 L -55 16.384000778198242 L -55 13.998000144958496 L -55 4.440892164675075e-17 L -55 -1.9980000257492065 L -55 -5.002999782562256 L -55 -7.498000144958496 L -48.74700164794922 -7.498000144958496 L -48.74700164794922 -16.384000778198242 L -48.74700164794922 -26.335412979125977 L -48.74700164794922 -29.34706687927246 L -48.74700164794922 -32.768001556396484 L -48.74700164794922 -41.99800109863281 L -48.74700164794922 -45.00299835205078 L -48.74700164794922 -46.50299835205078 L -51.93000030517578 -46.50299835205078 L -49.4306755065918 -49.152000427246094 L -45.45100021362305 -53.369998931884766 L -34.388999938964844 -59.34299850463867 L -32.768001556396484 -59.78913116455078 L -20.451000213623047 -63.17900085449219 L -16.384000778198242 -63.52671432495117 L -5 -64.5 L -0.7083939909934998 -64.13308715820312 L 0 -64.07251739501953 L 3.4313628673553467 -63.779151916503906 L 10.451000213623047 -63.17900085449219 L 16.384000778198242 -61.54612731933594 L 24.388999938964844 -59.34299850463867 L 32.768001556396484 -54.818702697753906 L 33.25299835205078 -54.55682373046875 L 35.45100021362305 -53.369998931884766 L 41.93000030517578 -46.50299835205078 L 38.49700164794922 -46.50299835205078 L 38.49700164794922 -32.768001556396484 L 38.49700164794922 -26.591690063476562 L 38.49700164794922 -23.30500030517578 L 38.49700164794922 -16.384000778198242 L 38.49700164794922 -7.498000144958496 L 42.75299835205078 -7.498000144958496 L 45 -7.498000144958496 L 45 -3 L 45 -1 L 45 4.440892164675075e-17 L 45 15 L 45 16.384000778198242 L 45 29 L 43.82991027832031 32.768001556396484 L 42.553001403808594 36.880001068115234 L 35.45100021362305 43.98899841308594 L 32.768001556396484 45.357177734375 L 24.388999938964844 49.630001068115234 M 2.0613999366760254 47.37919998168945 L 2.382999897003174 47.215999603271484 L 2.383582592010498 47.215415954589844 L 2.3860487937927246 47.21295166015625 L 2.7160000801086426 46.882999420166016 L 2.928999900817871 46.4640007019043 L 3.003000020980835 46 L 2.928999900817871 45.5359992980957 L 2.7160000801086426 45.117000579833984 L 2.6549999713897705 45.055999755859375 L 2.382999897003174 44.784000396728516 L 1.9639999866485596 44.57099914550781 L 1.5 44.49700164794922 L 1.0360000133514404 44.57099914550781 L 0.6169999837875366 44.784000396728516 L 0.3449999988079071 45.055999755859375 L 0.2840000092983246 45.117000579833984 L 0.07100000232458115 45.5359992980957 L 0.002839999971911311 45.963199615478516 L 0 45.98100662231445 L -0.00011999999696854502 45.98175811767578 L -0.003000000026077032 46 L -0.00011999999696854502 46.01824188232422 L 0 46.01899337768555 L 0.002839999971911311 46.036800384521484 L 0.07100000232458115 46.4640007019043 L 0.2840000092983246 46.882999420166016 L 0.6169999837875366 47.215999603271484 L 1.0360000133514404 47.42900085449219 L 1.5 47.50199890136719 L 1.9639999866485596 47.42900085449219 L 2.044640064239502 47.387718200683594 L 2.0613999366760254 47.37919998168945 M -10.746999740600586 46 L -10.821000099182129 45.5359992980957 L -11.034000396728516 45.117000579833984 L -11.095000267028809 45.055999755859375 L -11.366999626159668 44.784000396728516 L -11.78600025177002 44.57099914550781 L -12.25 44.49700164794922 L -12.71399974822998 44.57099914550781 L -13.133000373840332 44.784000396728516 L -13.404999732971191 45.055999755859375 L -13.465999603271484 45.117000579833984 L -13.678999900817871 45.5359992980957 L -13.751999855041504 46 L -13.678999900817871 46.4640007019043 L -13.465999603271484 46.882999420166016 L -13.133000373840332 47.215999603271484 L -12.71399974822998 47.42900085449219 L -12.30504035949707 47.49332046508789 L -12.286479949951172 47.496238708496094 L -12.25 47.50199890136719 L -12.249934196472168 47.501991271972656 L -12.24992561340332 47.50198745727539 L -11.78600025177002 47.42900085449219 L -11.366999626159668 47.215999603271484 L -11.034000396728516 46.882999420166016 L -10.821000099182129 46.4640007019043 L -10.746999740600586 46 M 14.996999740600586 7.5 L 15.095999717712402 8.119000434875488 L 15.380000114440918 8.677000045776367 L 15.822999954223633 9.119999885559082 L 16.381000518798828 9.404000282287598 L 16.384000778198242 9.40447998046875 L 17 9.503000259399414 L 17.618999481201172 9.404000282287598 L 18.177000045776367 9.119999885559082 L 18.6200008392334 8.677000045776367 L 18.905000686645508 8.119000434875488 L 19.003000259399414 7.5 L 18.905000686645508 6.88100004196167 L 18.6200008392334 6.322999954223633 L 18.177000045776367 5.880000114440918 L 17.618999481201172 5.5960001945495605 L 17 5.497000217437744 L 16.384000778198242 5.59552001953125 L 16.381000518798828 5.5960001945495605 L 15.822999954223633 5.880000114440918 L 15.380000114440918 6.322999954223633 L 15.095999717712402 6.88100004196167 L 14.996999740600586 7.5 M -32.104000091552734 -56.95199966430664 L -32.768001556396484 -56.47538375854492 L -36.862998962402344 -53.5359992980957 L -38.50199890136719 -49.75 L -38.24311828613281 -49.152000427246094 L -37.09634017944336 -46.50299835205078 L -36.862998962402344 -45.9640007019043 L -35.5241813659668 -45.00299835205078 L -32.768001556396484 -43.02461624145508 L -32.104000091552734 -42.54800033569336 L -27.760732650756836 -40.959999084472656 L -24.691999435424805 -39.8380012512207 L -24.576000213623047 -39.816375732421875 L -17 -38.40399932861328 L -16.384000778198242 -38.28917694091797 L -15.352999687194824 -38.09700012207031 L -5 -37.49800109863281 L 9.950691664964775e-14 -37.787288665771484 L 5.353000164031982 -38.09700012207031 L 7 -38.40399932861328 L 14.692000389099121 -39.8380012512207 L 16.384000778198242 -40.456634521484375 L 17.760732650756836 -40.959999084472656 L 20.599720001220703 -41.99800109863281 L 22.104000091552734 -42.54800033569336 L 26.863000869750977 -45.9640007019043 L 28.243961334228516 -49.152000427246094 L 28.503000259399414 -49.75 L 26.863000869750977 -53.5359992980957 L 22.104000091552734 -56.95199966430664 L 16.384000778198242 -59.043365478515625 L 14.692000389099121 -59.6619987487793 L 5.353000164031982 -61.40299987792969 L -1.4901160817412662e-13 -61.71323013305664 L -5 -62.00299835205078 L -15.352999687194824 -61.40299987792969 L -16.384000778198242 -61.21080017089844 L -24.691999435424805 -59.6619987487793 L -32.104000091552734 -56.95199966430664 M -27 9.503000259399414 L -26.381000518798828 9.404000282287598 L -25.822999954223633 9.119999885559082 L -25.3799991607666 8.677000045776367 L -25.133153915405273 8.192000389099121 L -25.09600067138672 8.119000434875488 L -24.99799919128418 7.5 L -25.09600067138672 6.88100004196167 L -25.3799991607666 6.322999954223633 L -25.822999954223633 5.880000114440918 L -26.381000518798828 5.5960001945495605 L -27 5.497000217437744 L -27.618999481201172 5.5960001945495605 L -28.177000045776367 5.880000114440918 L -28.6200008392334 6.322999954223633 L -28.90399932861328 6.88100004196167 L -29.00200080871582 7.5 L -28.90399932861328 8.119000434875488 L -28.866846084594727 8.192000389099121 L -28.6200008392334 8.677000045776367 L -28.177000045776367 9.119999885559082 L -27.618999481201172 9.404000282287598 L -27 9.503000259399414 M -24.84600067138672 -37.11899948120117 L -25.1299991607666 -37.676998138427734 L -25.572999954223633 -38.119998931884766 L -26.131000518798828 -38.404998779296875 L -26.75 -38.50299835205078 L -27.368999481201172 -38.404998779296875 L -27.927000045776367 -38.119998931884766 L -28.3700008392334 -37.676998138427734 L -28.65399932861328 -37.11899948120117 L -28.694372177124023 -36.86399841308594 L -28.75200080871582 -36.5 L -28.65399932861328 -35.88100051879883 L -28.3700008392334 -35.323001861572266 L -27.927000045776367 -34.880001068115234 L -27.368999481201172 -34.59600067138672 L -26.75 -34.49800109863281 L -26.131000518798828 -34.59600067138672 L -25.572999954223633 -34.880001068115234 L -25.1299991607666 -35.323001861572266 L -24.84600067138672 -35.88100051879883 L -24.74799919128418 -36.5 L -24.805627822875977 -36.86399841308594 L -24.84600067138672 -37.11899948120117 M 33.25 -28.003000259399414 L 32.768001556396484 -27.873353958129883 L 32.499000549316406 -27.801000595092773 L 31.948999404907227 -27.250999450683594 L 31.74799919128418 -26.5 L 31.948999404907227 -25.749000549316406 L 32.499000549316406 -25.198999404907227 L 32.768001556396484 -25.127004623413086 L 33.25 -24.99799919128418 L 34.000999450683594 -25.198999404907227 L 34.55099868774414 -25.749000549316406 L 34.75299835205078 -26.5 L 34.55099868774414 -27.250999450683594 L 34.000999450683594 -27.801000595092773 L 33.25 -28.003000259399414 M 17.868999481201172 -34.59600067138672 L 18.427000045776367 -34.880001068115234 L 18.8700008392334 -35.323001861572266 L 19.155000686645508 -35.88100051879883 L 19.253000259399414 -36.5 L 19.155000686645508 -37.11899948120117 L 18.8700008392334 -37.676998138427734 L 18.427000045776367 -38.119998931884766 L 17.868999481201172 -38.404998779296875 L 17.25 -38.50299835205078 L 16.631000518798828 -38.404998779296875 L 16.384000778198242 -38.27884292602539 L 16.072999954223633 -38.119998931884766 L 15.630000114440918 -37.676998138427734 L 15.345999717712402 -37.11899948120117 L 15.246999740600586 -36.5 L 15.345999717712402 -35.88100051879883 L 15.630000114440918 -35.323001861572266 L 16.072999954223633 -34.880001068115234 L 16.384000778198242 -34.72171401977539 L 16.631000518798828 -34.59600067138672 L 17.25 -34.49800109863281 L 17.868999481201172 -34.59600067138672 M 34.25299835205078 13.998000144958496 L 32.768001556396484 13.998000144958496 L 16.384000778198242 13.998000144958496 L 2.247999906539917 13.998000144958496 L 2.247999906539917 16.384000778198242 L 2.247999906539917 27.00200080871582 L 16.384000778198242 27.00200080871582 L 32.768001556396484 27.00200080871582 L 34.25299835205078 27.00200080871582 L 34.25299835205078 23.99799919128418 L 34.25299835205078 16.384000778198242 L 34.25299835205078 15 L 34.25299835205078 13.998000144958496 M -44.500999450683594 -27.801000595092773 L -45.05099868774414 -27.250999450683594 L -45.25299835205078 -26.5 L -45.05099868774414 -25.749000549316406 L -44.500999450683594 -25.198999404907227 L -43.75 -24.99799919128418 L -42.999000549316406 -25.198999404907227 L -42.44900131225586 -25.749000549316406 L -42.24800109863281 -26.5 L -42.44900131225586 -27.250999450683594 L -42.999000549316406 -27.801000595092773 L -43.75 -28.003000259399414 L -44.500999450683594 -27.801000595092773 M -11.746999740600586 27.00200080871582 L -11.746999740600586 16.384000778198242 L -11.746999740600586 13.998000144958496 L -16.384000778198242 13.998000144958496 L -28.088178634643555 13.998000144958496 L -32.768001556396484 13.998000144958496 L -43.75299835205078 13.998000144958496 L -43.75299835205078 16.384000778198242 L -43.75299835205078 23.99799919128418 L -43.75299835205078 27.00200080871582 L -32.768001556396484 27.00200080871582 L -16.384000778198242 27.00200080871582 L -11.746999740600586 27.00200080871582 M 11.248000144958496 32.49800109863281 L 11.248000144958496 32.768001556396484 L 11.248000144958496 35.50299835205078 L 14.253000259399414 35.50299835205078 L 14.253000259399414 32.768001556396484 L 14.253000259399414 32.49800109863281 L 11.248000144958496 32.49800109863281 M -32.768001556396484 35.50299835205078 L -32.24800109863281 35.50299835205078 L -32.24800109863281 32.768001556396484 L -32.24800109863281 32.49800109863281 L -32.768001556396484 32.49800109863281 L -35.25299835205078 32.49800109863281 L -35.25299835205078 32.768001556396484 L -35.25299835205078 35.50299835205078 L -32.768001556396484 35.50299835205078 M 24.253000259399414 35.50299835205078 L 24.253000259399414 32.768001556396484 L 24.253000259399414 32.49800109863281 L 21.24799919128418 32.49800109863281 L 21.24799919128418 32.768001556396484 L 21.24799919128418 35.50299835205078 L 24.253000259399414 35.50299835205078 M -53.25299835205078 27.00200080871582 L -53.25299835205078 27.003000259399414 L -50.24800109863281 27.003000259399414 L -50.24800109863281 27.00200080871582 L -50.24800109863281 23.99799919128418 L -53.25299835205078 23.99799919128418 L -53.25299835205078 27.00200080871582 M 42.75299835205078 23.99799919128418 L 39.74800109863281 23.99799919128418 L 39.74800109863281 27.003000259399414 L 42.75299835205078 27.003000259399414 L 42.75299835205078 23.99799919128418 M -41.24800109863281 -41.99800109863281 L -41.24800109863281 -45.00299835205078 L -44.25299835205078 -45.00299835205078 L -44.25299835205078 -41.99800109863281 L -41.24800109863281 -41.99800109863281 M 11.248000144958496 -4.002999782562256 L 11.248000144958496 -0.9970399737358093 L 14.253000259399414 -0.9970399737358093 L 14.253000259399414 -4.002999782562256 L 11.248000144958496 -4.002999782562256 M -25.253000259399414 32.49800109863281 L -25.253000259399414 32.768001556396484 L -25.253000259399414 35.50299835205078 L -22.24799919128418 35.50299835205078 L -22.24799919128418 32.768001556396484 L -22.24799919128418 32.49800109863281 L -25.253000259399414 32.49800109863281 M 11.248000144958496 -15.998000144958496 L 14.253000259399414 -15.998000144958496 L 14.253000259399414 -16.384000778198242 L 14.253000259399414 -19.003000259399414 L 11.248000144958496 -19.003000259399414 L 11.248000144958496 -16.384000778198242 L 11.248000144958496 -15.998000144958496 M -10.496999740600586 -21.49799919128418 L -10.496999740600586 -31.003000259399414 L -16.384000778198242 -31.003000259399414 L -32.75199890136719 -31.003000259399414 L -32.75199890136719 -21.49799919128418 L -16.384000778198242 -21.49799919128418 L -10.496999740600586 -21.49799919128418 M -24.253000259399414 -19.003000259399414 L -24.253000259399414 -16.384000778198242 L -24.253000259399414 -15.998000144958496 L -21.24799919128418 -15.998000144958496 L -21.24799919128418 -16.384000778198242 L -21.24799919128418 -19.003000259399414 L -24.253000259399414 -19.003000259399414 M 15.003000259399414 -11.003000259399414 L 0 -11.003000259399414 L -16.384000778198242 -11.003000259399414 L -25.003000259399414 -11.003000259399414 L -25.003000259399414 -4.498000144958496 L -16.384000778198242 -4.498000144958496 L 0 -4.498000144958496 L 15.003000259399414 -4.498000144958496 L 15.003000259399414 -11.003000259399414 M 0.49799999594688416 -21.49799919128418 L 16.384000778198242 -21.49799919128418 L 21.753000259399414 -21.49799919128418 L 21.753000259399414 -28.075092315673828 L 21.753000259399414 -31.003000259399414 L 16.384000778198242 -31.003000259399414 L 0.49799999594688416 -31.003000259399414 L 0.49799999594688416 -21.49799919128418 M -21.24799919128418 -0.9970399737358093 L -21.24799919128418 -4.002999782562256 L -24.253000259399414 -4.002999782562256 L -24.253000259399414 -0.9970399737358093 L -21.24799919128418 -0.9970399737358093 M -53.25299835205078 -1.9980000257492065 L -50.24800109863281 -1.9980000257492065 L -50.24800109863281 -5.002999782562256 L -53.25299835205078 -5.002999782562256 L -53.25299835205078 -1.9980000257492065 M 39.74800109863281 -1.9980000257492065 L 42.75299835205078 -1.9980000257492065 L 42.75299835205078 -3 L 42.75299835205078 -5.002999782562256 L 39.74800109863281 -5.002999782562256 L 39.74800109863281 -1.9980000257492065 M 33.25299835205078 -45.00299835205078 L 32.768001556396484 -45.00299835205078 L 30.24799919128418 -45.00299835205078 L 30.24799919128418 -41.99800109863281 L 32.768001556396484 -41.99800109863281 L 33.25299835205078 -41.99800109863281 L 33.25299835205078 -45.00299835205078 z" fill="none" stroke="rgb(0,0,255)" stroke-width="0.01mm" />
</svg>